<?xml version="1.0" encoding="UTF-8"?>
<svg width="24px" height="24px" viewBox="0 0 24 24" version="1.1" xmlns="http://www.w3.org/2000/svg" xmlns:xlink="http://www.w3.org/1999/xlink">
    <!-- Generator: Sketch 46.2 (44496) - http://www.bohemiancoding.com/sketch -->
    <title>搜索选中</title>
    <desc>Created with Sketch.</desc>
    <defs></defs>
    <g id="课程表_PC2" stroke="none" stroke-width="1" fill="none" fill-rule="evenodd">
        <g id="icon" transform="translate(-987.000000, -70.000000)" fill="#4F87FB">
            <g id="搜索选中" transform="translate(999.849242, 82.849242) rotate(-45.000000) translate(-999.849242, -82.849242) translate(990.849242, 70.849242)">
                <path d="M9,18 C4.02943725,18 0,13.9705627 0,9 C0,4.02943725 4.02943725,0 9,0 C13.9705627,0 18,4.02943725 18,9 C18,13.9705627 13.9705627,18 9,18 Z M9,16 C12.8659932,16 16,12.8659932 16,9 C16,5.13400675 12.8659932,2 9,2 C5.13400675,2 2,5.13400675 2,9 C2,12.8659932 5.13400675,16 9,16 Z" id="Combined-Shape"></path>
                <rect id="Rectangle-3" x="7.7" y="16.9411765" width="2" height="7" rx="1"></rect>
            </g>
        </g>
    </g>
</svg>